<?xml version="1.0" standalone="no"?>
<!DOCTYPE svg PUBLIC "-//W3C//DTD SVG 20010904//EN"
 "http://www.w3.org/TR/2001/REC-SVG-20010904/DTD/svg10.dtd">
<svg version="1.0" xmlns="http://www.w3.org/2000/svg"
 width="700.000000pt" height="700.000000pt" viewBox="0 0 700.000000 700.000000"
 preserveAspectRatio="xMidYMid meet">
<metadata>
Created by potrace 1.14, written by Peter Selinger 2001-2017
</metadata>
<g transform="translate(0.000000,700.000000) scale(0.100000,-0.100000)"
fill="#000000" stroke="none">
<path d="M4070 6870 c-26 -10 -63 -28 -84 -39 l-38 -22 -87 25 c-47 14 -99 28
-116 31 -39 7 -130 8 -152 1 -10 -3 -34 -7 -54 -10 -60 -9 -206 -45 -271 -67
-69 -23 -148 -73 -148 -94 0 -7 -21 -21 -47 -31 -27 -9 -55 -25 -64 -34 -8
-10 -30 -25 -47 -34 -18 -9 -30 -21 -27 -26 3 -5 -14 -22 -37 -39 -24 -17 -97
-83 -163 -146 -66 -64 -141 -130 -167 -147 -26 -17 -50 -39 -53 -49 -3 -10
-29 -53 -57 -96 -72 -109 -102 -181 -128 -306 -22 -108 -21 -139 5 -103 16 22
48 15 39 -9 -3 -8 -1 -15 5 -15 9 0 9 -6 0 -22 -25 -48 -12 -503 16 -549 4 -5
9 -45 11 -87 2 -42 6 -88 8 -102 19 -113 47 -206 76 -255 11 -17 22 -53 25
-81 3 -28 7 -60 9 -71 3 -12 8 -42 11 -67 7 -46 40 -106 61 -113 6 -2 14 7 16
20 6 32 2 267 -7 409 -7 113 -3 168 13 168 4 0 8 -43 8 -95 1 -64 6 -100 15
-111 9 -11 14 -49 15 -118 0 -55 4 -139 9 -186 4 -47 9 -98 10 -115 2 -32 15
-127 20 -154 1 -9 6 -36 10 -61 8 -47 68 -200 134 -343 46 -100 47 -101 26
-93 -10 4 -15 -1 -17 -17 0 -12 -2 -42 -4 -67 -8 -135 -15 -217 -19 -231 -6
-16 -19 -18 -212 -23 -97 -3 -107 -6 -188 -44 -47 -23 -111 -58 -142 -79 -71
-47 -170 -169 -178 -221 -11 -61 -15 -71 -35 -77 -26 -8 -121 -108 -147 -155
-13 -22 -48 -73 -78 -113 -31 -39 -58 -82 -60 -94 -3 -13 -7 -34 -10 -48 -6
-27 -21 -37 -230 -165 -294 -180 -513 -328 -533 -359 -21 -33 -32 -40 -49 -34
-7 3 -13 -1 -13 -10 0 -9 -9 -18 -20 -22 -20 -6 -200 -208 -250 -280 -58 -84
-122 -219 -245 -515 -69 -168 -130 -314 -135 -325 -33 -78 -90 -279 -109 -390
-15 -85 -30 -214 -36 -311 l-3 -54 3335 0 3335 0 -6 168 c-4 93 -8 179 -11
193 -2 13 -9 60 -15 104 -30 204 -208 755 -318 984 -43 90 -137 233 -186 284
-36 38 -265 214 -500 387 -71 52 -173 128 -225 168 -53 40 -134 99 -181 131
-114 78 -126 92 -114 134 15 47 1 98 -32 122 -26 19 -52 44 -87 85 -8 9 -26
42 -39 72 -38 82 -91 132 -163 152 -33 10 -77 29 -99 43 -41 27 -129 60 -186
70 -58 11 -143 9 -147 -3 -4 -13 53 -98 114 -170 42 -50 43 -52 26 -72 -10
-12 -58 -42 -108 -68 -49 -26 -115 -61 -145 -79 -101 -60 -365 -201 -396 -212
-39 -14 -122 -10 -152 6 -13 7 -22 21 -22 36 0 13 -4 26 -10 30 -5 3 -7 12 -4
20 9 21 -13 52 -42 59 -14 4 -40 20 -57 36 -29 27 -30 30 -17 55 24 44 233
262 328 340 67 56 223 275 307 430 21 39 51 89 66 113 16 24 29 45 29 47 0 3
16 30 36 61 43 67 70 142 57 155 -6 6 -29 -1 -61 -16 -45 -22 -60 -24 -100
-17 -54 9 -53 5 -27 127 22 108 14 171 -30 230 -74 96 -175 165 -242 165 -40
0 -50 -18 -30 -57 15 -30 52 -130 73 -200 13 -43 13 -43 -17 -59 -54 -28 -272
-52 -404 -45 l-30 2 25 20 c88 72 156 139 186 183 19 28 34 54 34 58 0 11 -84
0 -167 -21 l-68 -18 -57 29 c-32 15 -58 25 -58 22 0 -21 -41 34 -46 62 -5 29
-9 32 -24 24 -30 -16 -50 -12 -50 10 0 11 3 20 8 21 4 1 21 2 37 4 17 1 33 3
36 4 4 0 14 16 22 34 15 32 23 87 32 222 2 39 10 110 16 159 11 80 16 94 48
129 50 56 49 83 -8 154 -30 37 -56 59 -71 61 -14 2 -30 8 -36 13 -30 24 -193
69 -308 84 -27 3 -57 10 -67 15 -10 6 -54 10 -99 10 -91 0 -103 14 -34 40 59
23 62 26 55 62 -4 18 -3 51 2 73 4 22 8 50 8 63 -1 26 -3 26 44 6 49 -20 55
-11 19 27 -16 17 -24 30 -19 29 54 -11 94 22 58 48 -15 11 -16 14 -3 22 8 5
17 7 21 4 15 -9 19 15 5 29 -8 8 -18 25 -21 39 -3 13 -19 38 -36 55 -16 18
-29 36 -29 41 0 26 109 116 190 157 67 34 275 104 329 111 129 17 161 19 214
12 32 -4 93 -19 135 -34 105 -35 436 -199 552 -274 118 -75 173 -94 212 -72
25 15 29 14 49 -3 30 -28 42 -55 41 -91 -2 -41 -30 -112 -58 -146 -12 -15 -28
-54 -35 -85 -16 -75 -16 -325 1 -428 12 -80 18 -137 21 -230 2 -72 13 -95 45
-95 30 0 81 27 89 48 2 7 -4 31 -15 52 -26 52 -25 64 8 102 34 37 57 33 67
-11 3 -16 13 -35 21 -42 11 -9 17 -5 30 27 16 38 22 133 9 154 -3 5 -18 10
-32 10 -25 0 -23 3 26 55 28 30 58 68 64 85 21 49 11 456 -13 539 -10 35 -5
56 18 83 30 36 12 116 -47 202 -17 25 -31 51 -31 59 0 34 -232 383 -307 463
-70 73 -347 320 -391 348 -86 54 -171 71 -232 46z m-114 -121 c16 -18 16 -19
-8 -19 -30 0 -63 23 -55 38 9 14 42 4 63 -19z m-239 -12 c7 -5 10 -14 7 -19
-6 -10 -44 19 -44 34 0 9 14 4 37 -15z m638 -50 c58 -19 42 -32 -41 -33 -75
-2 -136 10 -163 30 -11 9 -8 12 15 16 45 8 149 1 189 -13z m-640 -47 c7 0 23
-9 36 -20 l24 -21 -44 5 c-47 6 -75 22 -65 38 3 5 13 7 21 4 8 -3 21 -6 28 -6z
m-43 -75 c-1 -5 -14 -9 -27 -8 -16 1 -25 -3 -25 -12 0 -16 -14 -18 -43 -6 -34
13 17 41 68 38 17 -1 29 -6 27 -12z m566 -21 c12 -4 22 -10 22 -14 0 -8 -77 4
-87 14 -8 8 35 8 65 0z m-655 -165 c39 -44 45 -59 23 -59 -16 0 -86 46 -103
69 -43 56 27 47 80 -10z m677 -29 c25 -10 64 -23 88 -30 51 -16 83 -46 36 -34
-16 4 -38 11 -48 17 -11 5 -47 9 -80 9 -80 -1 -92 3 -110 39 l-15 31 42 -7
c23 -4 62 -15 87 -25z m-812 -9 c3 -8 -1 -12 -9 -9 -7 2 -15 10 -17 17 -3 8 1
12 9 9 7 -2 15 -10 17 -17z m9 -80 c15 -9 11 -10 -22 -11 -44 0 -71 12 -61 28
7 11 50 2 83 -17z m-337 -590 c0 -12 -20 -25 -27 -18 -7 7 6 27 18 27 5 0 9
-4 9 -9z m-493 -723 c-3 -8 -6 -5 -6 6 -1 11 2 17 5 13 3 -3 4 -12 1 -19z
m758 -248 c2 -3 -7 -23 -20 -42 -13 -20 -27 -48 -31 -64 -14 -57 -45 -117 -74
-144 -16 -15 -31 -39 -34 -53 -10 -57 -44 -83 -116 -88 -67 -4 -92 17 -110 91
-6 27 -23 63 -36 81 -19 25 -23 41 -18 65 4 22 1 40 -10 56 -9 12 -16 26 -16
30 0 13 77 48 117 54 21 3 49 7 63 10 14 2 70 7 125 11 55 3 101 7 103 8 5 4
52 -8 57 -15z m871 -775 c18 -43 3 -145 -25 -165 -8 -6 -38 -82 -85 -214 -21
-61 -37 -91 -51 -96 -11 -5 -44 -29 -74 -54 -47 -42 -101 -77 -116 -76 -3 0
-22 7 -42 15 -21 9 -58 21 -83 26 -24 6 -51 15 -59 22 -8 7 -21 12 -30 13 -9
0 -29 6 -44 12 -16 7 -37 12 -48 12 -31 0 -149 49 -198 83 l-44 30 36 19 c53
27 190 58 287 65 53 3 88 11 93 19 4 7 21 15 37 19 20 4 36 17 46 36 14 27 13
32 -10 72 -13 23 -22 48 -19 55 3 6 1 13 -4 13 -20 3 -73 8 -127 13 -32 3 -61
7 -63 10 -15 15 147 51 272 61 44 4 92 8 108 10 45 4 119 -14 142 -35 12 -11
27 -20 33 -20 13 0 42 51 42 75 0 25 10 17 26 -20z m-709 -1715 c2 0 3 -4 3
-10 0 -14 -43 -13 -58 2 -21 21 -13 27 20 17 18 -5 34 -9 35 -9z m-2628 -371
c-16 -10 -23 -4 -14 10 3 6 11 8 17 5 6 -4 5 -9 -3 -15z"/>
<path d="M4180 3826 c0 -9 5 -16 10 -16 6 0 10 4 10 9 0 6 -4 13 -10 16 -5 3
-10 -1 -10 -9z"/>
<path d="M3136 5378 c-18 -25 -9 -41 35 -64 26 -13 29 -12 39 5 16 31 12 47
-15 65 -32 21 -41 20 -59 -6z"/>
<path d="M3865 5166 c-85 -24 -125 -44 -125 -62 0 -6 -9 -19 -20 -29 -17 -16
-18 -20 -6 -34 7 -9 24 -44 36 -78 27 -76 49 -99 157 -164 120 -73 182 -93
264 -85 68 6 139 29 122 39 -5 3 -32 9 -59 12 -81 11 -159 36 -144 47 81 59
87 61 167 55 43 -4 94 -9 113 -12 89 -16 94 -13 86 47 -9 64 -12 69 -92 113
-35 20 -64 39 -64 42 0 4 7 15 16 25 16 16 15 18 -2 25 -10 4 -27 17 -39 30
-27 32 -78 43 -215 48 -97 3 -128 0 -195 -19z"/>
</g>
</svg>
